<svg xmlns:xlink="http://www.w3.org/1999/xlink" xmlns="http://www.w3.org/2000/svg" width="103" height="128" viewBox="0 0 103 128" fill="none"><path d="M101.485 1.5V100.551L51.9854 126.309L2.48535 100.551V1.5H101.485Z" fill="white" stroke="#089DD9" stroke-width="3"/><path d="M44.0555 98V95.48H38.1155V93.26L44.5755 83.9H47.0955V93.04H49.0155V95.48H47.0955V98H44.0555ZM44.0555 93.04V87.6H44.6355L40.4155 93.8V93.04H44.0555ZM50.3677 98V94.8H53.6077V98H50.3677ZM59.423 98.22C58.9297 98.22 58.4297 98.16 57.923 98.04C57.4163 97.92 56.9363 97.7467 56.483 97.52C56.0297 97.28 55.6097 97 55.223 96.68L56.223 94.38C56.703 94.7933 57.2163 95.1067 57.763 95.32C58.323 95.5333 58.8897 95.64 59.463 95.64C59.9963 95.64 60.4697 95.5467 60.883 95.36C61.2963 95.1733 61.643 94.9 61.923 94.54C62.203 94.18 62.4097 93.7333 62.543 93.2C62.6897 92.6667 62.763 92.0467 62.763 91.34V90.04H63.023C62.9163 90.6667 62.6963 91.2067 62.363 91.66C62.0297 92.1133 61.6097 92.46 61.103 92.7C60.6097 92.94 60.0497 93.06 59.423 93.06C58.6363 93.06 57.9297 92.8667 57.303 92.48C56.6763 92.08 56.183 91.5333 55.823 90.84C55.463 90.1467 55.283 89.3667 55.283 88.5C55.283 87.5667 55.483 86.74 55.883 86.02C56.2963 85.2867 56.8563 84.7133 57.563 84.3C58.283 83.8867 59.1097 83.68 60.043 83.68C61.2563 83.68 62.2763 83.96 63.103 84.52C63.943 85.08 64.583 85.8867 65.023 86.94C65.463 87.9933 65.683 89.2667 65.683 90.76C65.683 92.3333 65.4297 93.68 64.923 94.8C64.4297 95.9067 63.7163 96.7533 62.783 97.34C61.863 97.9267 60.743 98.22 59.423 98.22ZM60.223 90.64C60.6363 90.64 60.9963 90.5467 61.303 90.36C61.623 90.1733 61.8697 89.9067 62.043 89.56C62.2163 89.2133 62.303 88.8133 62.303 88.36C62.303 87.9067 62.2163 87.5133 62.043 87.18C61.8697 86.8333 61.623 86.5667 61.303 86.38C60.9963 86.18 60.6363 86.08 60.223 86.08C59.8097 86.08 59.443 86.18 59.123 86.38C58.8163 86.5667 58.5763 86.8333 58.403 87.18C58.2297 87.5133 58.143 87.9067 58.143 88.36C58.143 88.8133 58.2297 89.2133 58.403 89.56C58.5897 89.9067 58.8363 90.1733 59.143 90.36C59.4497 90.5467 59.8097 90.64 60.223 90.64Z" fill="black"/><rect x="9.98535" y="55" width="16" height="16" fill="#089DD9"/><rect x="27.1279" y="55" width="16" height="16" fill="#089DD9"/><rect x="44.2715" y="55" width="16" height="16" fill="#089DD9"/><rect x="61.4141" y="55" width="16" height="16" fill="#089DD9"/><rect x="78.5566" y="55" width="8" height="16" fill="#089DD9"/><rect x="86.5566" y="55" width="8" height="16" fill="#089DD9"/><path d="M17.9851 56.1428L19.5246 60.881H24.5066L20.4761 63.8093L22.0156 68.5475L17.9851 65.6192L13.9545 68.5475L15.4941 63.8093L11.4635 60.881H16.4455L17.9851 56.1428Z" fill="white"/><path d="M35.1286 56.1428L36.6682 60.881H41.6502L37.6196 63.8093L39.1592 68.5475L35.1286 65.6192L31.0981 68.5475L32.6376 63.8093L28.6071 60.881H33.5891L35.1286 56.1428Z" fill="white"/><path d="M52.2712 56.1428L53.8107 60.881H58.7927L54.7622 63.8093L56.3017 68.5475L52.2712 65.6192L48.2407 68.5475L49.7802 63.8093L45.7497 60.881H50.7317L52.2712 56.1428Z" fill="white"/><path d="M69.4138 56.1428L70.9533 60.881H75.9353L71.9048 63.8093L73.4443 68.5475L69.4138 65.6192L65.3833 68.5475L66.9228 63.8093L62.8923 60.881H67.8743L69.4138 56.1428Z" fill="white"/><path d="M86.5564 56.1428L88.0959 60.881H93.0779L89.0474 63.8093L90.5869 68.5475L86.5564 65.6192L82.5258 68.5475L84.0654 63.8093L80.0348 60.881H85.0168L86.5564 56.1428Z" fill="white"/><path d="M34.3836 20.12C33.4476 20.12 32.6556 19.944 32.0076 19.592C31.3676 19.24 30.8796 18.74 30.5436 18.092C30.2076 17.444 30.0396 16.676 30.0396 15.788C30.0396 14.892 30.2116 14.12 30.5556 13.472C30.8996 12.816 31.3956 12.312 32.0436 11.96C32.6916 11.6 33.4676 11.42 34.3716 11.42C34.7716 11.42 35.1516 11.46 35.5116 11.54C35.8796 11.612 36.2196 11.72 36.5316 11.864C36.8436 12.008 37.1116 12.184 37.3356 12.392L36.8196 13.592C36.4436 13.296 36.0596 13.084 35.6676 12.956C35.2756 12.828 34.8436 12.764 34.3716 12.764C33.4756 12.764 32.7956 13.024 32.3316 13.544C31.8756 14.064 31.6476 14.812 31.6476 15.788C31.6476 16.772 31.8836 17.52 32.3556 18.032C32.8276 18.544 33.5276 18.8 34.4556 18.8C34.7756 18.8 35.0996 18.768 35.4276 18.704C35.7556 18.64 36.0756 18.552 36.3876 18.44L36.0876 19.124V16.568H34.1436V15.428H37.3716V19.496C37.1156 19.624 36.8196 19.736 36.4836 19.832C36.1556 19.92 35.8116 19.988 35.4516 20.036C35.0916 20.092 34.7356 20.12 34.3836 20.12ZM39.1875 20V18.86L41.9235 15.944C42.1715 15.68 42.3675 15.436 42.5115 15.212C42.6635 14.988 42.7755 14.772 42.8475 14.564C42.9195 14.356 42.9555 14.148 42.9555 13.94C42.9555 13.54 42.8275 13.236 42.5715 13.028C42.3235 12.82 41.9595 12.716 41.4795 12.716C41.1035 12.716 40.7355 12.788 40.3755 12.932C40.0235 13.068 39.6835 13.284 39.3555 13.58L38.8395 12.428C39.1755 12.124 39.5955 11.88 40.0995 11.696C40.6035 11.512 41.1275 11.42 41.6715 11.42C42.2795 11.42 42.7915 11.512 43.2075 11.696C43.6235 11.88 43.9395 12.148 44.1555 12.5C44.3715 12.852 44.4795 13.28 44.4795 13.784C44.4795 14.04 44.4475 14.292 44.3835 14.54C44.3275 14.78 44.2355 15.02 44.1075 15.26C43.9875 15.5 43.8315 15.748 43.6395 16.004C43.4555 16.252 43.2315 16.512 42.9675 16.784L40.7115 19.136V18.728H44.8035V20H39.1875ZM53.0972 20.12C51.9372 20.12 51.0492 19.82 50.4332 19.22C49.8252 18.612 49.5212 17.716 49.5212 16.532V11.54H51.0572V16.52C51.0572 17.28 51.2292 17.852 51.5732 18.236C51.9252 18.612 52.4332 18.8 53.0972 18.8C53.7612 18.8 54.2652 18.612 54.6092 18.236C54.9532 17.852 55.1252 17.28 55.1252 16.52V11.54H56.6492V16.532C56.6492 17.716 56.3492 18.612 55.7492 19.22C55.1492 19.82 54.2652 20.12 53.0972 20.12ZM60.4446 20.12C60.1166 20.12 59.7966 20.092 59.4846 20.036C59.1806 19.98 58.9006 19.904 58.6446 19.808C58.3886 19.704 58.1646 19.576 57.9726 19.424L58.3566 18.44C58.5566 18.568 58.7726 18.68 59.0046 18.776C59.2366 18.872 59.4766 18.944 59.7246 18.992C59.9726 19.04 60.2166 19.064 60.4566 19.064C60.8406 19.064 61.1246 19 61.3086 18.872C61.5006 18.736 61.5966 18.56 61.5966 18.344C61.5966 18.16 61.5326 18.02 61.4046 17.924C61.2846 17.82 61.1006 17.744 60.8526 17.696L59.6526 17.468C59.1566 17.372 58.7766 17.192 58.5126 16.928C58.2566 16.656 58.1286 16.308 58.1286 15.884C58.1286 15.5 58.2326 15.168 58.4406 14.888C58.6566 14.608 58.9526 14.392 59.3286 14.24C59.7046 14.088 60.1366 14.012 60.6246 14.012C60.9046 14.012 61.1766 14.04 61.4406 14.096C61.7046 14.144 61.9526 14.22 62.1846 14.324C62.4246 14.42 62.6326 14.548 62.8086 14.708L62.4006 15.692C62.2486 15.564 62.0726 15.456 61.8726 15.368C61.6726 15.272 61.4646 15.2 61.2486 15.152C61.0406 15.096 60.8366 15.068 60.6366 15.068C60.2446 15.068 59.9526 15.136 59.7606 15.272C59.5766 15.408 59.4846 15.588 59.4846 15.812C59.4846 15.98 59.5406 16.12 59.6526 16.232C59.7646 16.344 59.9366 16.42 60.1686 16.46L61.3686 16.688C61.8886 16.784 62.2806 16.96 62.5446 17.216C62.8166 17.472 62.9526 17.816 62.9526 18.248C62.9526 18.64 62.8486 18.976 62.6406 19.256C62.4326 19.536 62.1406 19.752 61.7646 19.904C61.3886 20.048 60.9486 20.12 60.4446 20.12ZM67.048 20.12C66.384 20.12 65.812 19.996 65.332 19.748C64.852 19.5 64.48 19.148 64.216 18.692C63.96 18.236 63.832 17.696 63.832 17.072C63.832 16.464 63.956 15.932 64.204 15.476C64.46 15.02 64.808 14.664 65.248 14.408C65.696 14.144 66.204 14.012 66.772 14.012C67.332 14.012 67.812 14.132 68.212 14.372C68.612 14.612 68.92 14.952 69.136 15.392C69.36 15.832 69.472 16.356 69.472 16.964V17.408H65.044V16.544H68.416L68.224 16.724C68.224 16.18 68.104 15.764 67.864 15.476C67.624 15.18 67.28 15.032 66.832 15.032C66.496 15.032 66.208 15.112 65.968 15.272C65.736 15.424 65.556 15.644 65.428 15.932C65.308 16.212 65.248 16.548 65.248 16.94V17.024C65.248 17.464 65.316 17.828 65.452 18.116C65.588 18.404 65.792 18.62 66.064 18.764C66.336 18.908 66.672 18.98 67.072 18.98C67.4 18.98 67.728 18.932 68.056 18.836C68.384 18.732 68.684 18.572 68.956 18.356L69.376 19.364C69.096 19.596 68.744 19.78 68.32 19.916C67.896 20.052 67.472 20.12 67.048 20.12ZM70.6599 20V14.132H72.1239V15.548H72.0039C72.1159 15.068 72.3359 14.704 72.6639 14.456C72.9919 14.2 73.4279 14.052 73.9719 14.012L74.4279 13.976L74.5239 15.248L73.6599 15.332C73.1719 15.38 72.8039 15.532 72.5559 15.788C72.3079 16.036 72.1839 16.388 72.1839 16.844V20H70.6599ZM22.9191 33.12C22.4791 33.12 22.0551 33.08 21.6471 33C21.2471 32.928 20.8751 32.82 20.5311 32.676C20.1951 32.532 19.8951 32.36 19.6311 32.16L20.0991 30.948C20.3631 31.132 20.6391 31.292 20.9271 31.428C21.2231 31.556 21.5351 31.656 21.8631 31.728C22.1991 31.792 22.5511 31.824 22.9191 31.824C23.5511 31.824 24.0111 31.72 24.2991 31.512C24.5871 31.296 24.7311 31.02 24.7311 30.684C24.7311 30.5 24.6871 30.344 24.5991 30.216C24.5111 30.08 24.3671 29.964 24.1671 29.868C23.9671 29.772 23.7031 29.692 23.3751 29.628L22.0551 29.352C21.2951 29.192 20.7271 28.924 20.3511 28.548C19.9831 28.164 19.7991 27.66 19.7991 27.036C19.7991 26.508 19.9391 26.048 20.2191 25.656C20.4991 25.264 20.8871 24.96 21.3831 24.744C21.8791 24.528 22.4511 24.42 23.0991 24.42C23.4831 24.42 23.8511 24.46 24.2031 24.54C24.5631 24.612 24.8911 24.724 25.1871 24.876C25.4911 25.02 25.7551 25.196 25.9791 25.404L25.5111 26.556C25.1751 26.276 24.8071 26.068 24.4071 25.932C24.0071 25.788 23.5671 25.716 23.0871 25.716C22.7191 25.716 22.4031 25.768 22.1391 25.872C21.8751 25.976 21.6711 26.124 21.5271 26.316C21.3911 26.5 21.3231 26.72 21.3231 26.976C21.3231 27.264 21.4191 27.496 21.6111 27.672C21.8031 27.84 22.1311 27.972 22.5951 28.068L23.9031 28.344C24.6951 28.512 25.2831 28.776 25.6671 29.136C26.0591 29.496 26.2551 29.976 26.2551 30.576C26.2551 31.08 26.1191 31.524 25.8471 31.908C25.5751 32.292 25.1871 32.592 24.6831 32.808C24.1871 33.016 23.5991 33.12 22.9191 33.12ZM29.3614 33.12C28.9374 33.12 28.5574 33.04 28.2214 32.88C27.8934 32.712 27.6334 32.488 27.4414 32.208C27.2574 31.928 27.1654 31.612 27.1654 31.26C27.1654 30.828 27.2774 30.488 27.5014 30.24C27.7254 29.984 28.0894 29.8 28.5934 29.688C29.0974 29.576 29.7734 29.52 30.6214 29.52H31.2214V30.384H30.6334C30.2574 30.384 29.9414 30.4 29.6854 30.432C29.4294 30.456 29.2214 30.5 29.0614 30.564C28.9094 30.62 28.7974 30.7 28.7254 30.804C28.6614 30.908 28.6294 31.036 28.6294 31.188C28.6294 31.452 28.7214 31.668 28.9054 31.836C29.0894 32.004 29.3454 32.088 29.6734 32.088C29.9374 32.088 30.1694 32.028 30.3694 31.908C30.5774 31.78 30.7414 31.608 30.8614 31.392C30.9814 31.176 31.0414 30.928 31.0414 30.648V29.268C31.0414 28.868 30.9534 28.58 30.7774 28.404C30.6014 28.228 30.3054 28.14 29.8894 28.14C29.5614 28.14 29.2254 28.192 28.8814 28.296C28.5374 28.392 28.1894 28.544 27.8374 28.752L27.4054 27.732C27.6134 27.588 27.8574 27.464 28.1374 27.36C28.4254 27.248 28.7254 27.164 29.0374 27.108C29.3574 27.044 29.6574 27.012 29.9374 27.012C30.5134 27.012 30.9854 27.1 31.3534 27.276C31.7294 27.452 32.0094 27.72 32.1934 28.08C32.3774 28.432 32.4694 28.888 32.4694 29.448V33H31.0654V31.752H31.1614C31.1054 32.032 30.9934 32.276 30.8254 32.484C30.6654 32.684 30.4614 32.84 30.2134 32.952C29.9654 33.064 29.6814 33.12 29.3614 33.12ZM36.6799 33.12C35.8959 33.12 35.3119 32.924 34.9279 32.532C34.5439 32.14 34.3519 31.568 34.3519 30.816V28.26H33.2239V27.132H34.3519V25.38H35.8519V27.132H37.6279V28.26H35.8519V30.732C35.8519 31.116 35.9359 31.404 36.1039 31.596C36.2719 31.788 36.5439 31.884 36.9199 31.884C37.0319 31.884 37.1479 31.872 37.2679 31.848C37.3879 31.816 37.5119 31.784 37.6399 31.752L37.8679 32.856C37.7239 32.936 37.5399 33 37.3159 33.048C37.0999 33.096 36.8879 33.12 36.6799 33.12ZM38.5014 25.872V24.408H40.1814V25.872H38.5014ZM38.5974 33V27.132H40.0974V33H38.5974ZM43.804 33.12C43.476 33.12 43.156 33.092 42.844 33.036C42.54 32.98 42.26 32.904 42.004 32.808C41.748 32.704 41.524 32.576 41.332 32.424L41.716 31.44C41.916 31.568 42.132 31.68 42.364 31.776C42.596 31.872 42.836 31.944 43.084 31.992C43.332 32.04 43.576 32.064 43.816 32.064C44.2 32.064 44.484 32 44.668 31.872C44.86 31.736 44.956 31.56 44.956 31.344C44.956 31.16 44.892 31.02 44.764 30.924C44.644 30.82 44.46 30.744 44.212 30.696L43.012 30.468C42.516 30.372 42.136 30.192 41.872 29.928C41.616 29.656 41.488 29.308 41.488 28.884C41.488 28.5 41.592 28.168 41.8 27.888C42.016 27.608 42.312 27.392 42.688 27.24C43.064 27.088 43.496 27.012 43.984 27.012C44.264 27.012 44.536 27.04 44.8 27.096C45.064 27.144 45.312 27.22 45.544 27.324C45.784 27.42 45.992 27.548 46.168 27.708L45.76 28.692C45.608 28.564 45.432 28.456 45.232 28.368C45.032 28.272 44.824 28.2 44.608 28.152C44.4 28.096 44.196 28.068 43.996 28.068C43.604 28.068 43.312 28.136 43.12 28.272C42.936 28.408 42.844 28.588 42.844 28.812C42.844 28.98 42.9 29.12 43.012 29.232C43.124 29.344 43.296 29.42 43.528 29.46L44.728 29.688C45.248 29.784 45.64 29.96 45.904 30.216C46.176 30.472 46.312 30.816 46.312 31.248C46.312 31.64 46.208 31.976 46 32.256C45.792 32.536 45.5 32.752 45.124 32.904C44.748 33.048 44.308 33.12 43.804 33.12ZM47.9114 33V28.26H46.7834V27.132H48.3434L47.9114 27.528V27.12C47.9114 26.288 48.1274 25.66 48.5594 25.236C48.9994 24.812 49.6794 24.572 50.5994 24.516L51.1874 24.48L51.2834 25.584L50.7314 25.62C50.4114 25.636 50.1554 25.696 49.9634 25.8C49.7714 25.896 49.6314 26.032 49.5434 26.208C49.4554 26.384 49.4114 26.608 49.4114 26.88V27.324L49.2194 27.132H51.0074V28.26H49.4114V33H47.9114ZM53.7599 33.12C53.3359 33.12 52.9559 33.04 52.6199 32.88C52.2919 32.712 52.0319 32.488 51.8399 32.208C51.6559 31.928 51.5639 31.612 51.5639 31.26C51.5639 30.828 51.6759 30.488 51.8999 30.24C52.1239 29.984 52.4879 29.8 52.9919 29.688C53.4959 29.576 54.1719 29.52 55.0199 29.52H55.6199V30.384H55.0319C54.6559 30.384 54.3399 30.4 54.0839 30.432C53.8279 30.456 53.6199 30.5 53.4599 30.564C53.3079 30.62 53.1959 30.7 53.1239 30.804C53.0599 30.908 53.0279 31.036 53.0279 31.188C53.0279 31.452 53.1199 31.668 53.3039 31.836C53.4879 32.004 53.7439 32.088 54.0719 32.088C54.3359 32.088 54.5679 32.028 54.7679 31.908C54.9759 31.78 55.1399 31.608 55.2599 31.392C55.3799 31.176 55.4399 30.928 55.4399 30.648V29.268C55.4399 28.868 55.3519 28.58 55.1759 28.404C54.9999 28.228 54.7039 28.14 54.2879 28.14C53.9599 28.14 53.6239 28.192 53.2799 28.296C52.9359 28.392 52.5879 28.544 52.2359 28.752L51.8039 27.732C52.0119 27.588 52.2559 27.464 52.5359 27.36C52.8239 27.248 53.1239 27.164 53.4359 27.108C53.7559 27.044 54.0559 27.012 54.3359 27.012C54.9119 27.012 55.3839 27.1 55.7519 27.276C56.1279 27.452 56.4079 27.72 56.5919 28.08C56.7759 28.432 56.8679 28.888 56.8679 29.448V33H55.4639V31.752H55.5599C55.5039 32.032 55.3919 32.276 55.2239 32.484C55.0639 32.684 54.8599 32.84 54.6119 32.952C54.3639 33.064 54.0799 33.12 53.7599 33.12ZM61.1024 33.12C60.4864 33.12 59.9504 32.996 59.4944 32.748C59.0384 32.492 58.6864 32.132 58.4384 31.668C58.1904 31.204 58.0664 30.66 58.0664 30.036C58.0664 29.412 58.1904 28.876 58.4384 28.428C58.6864 27.972 59.0384 27.624 59.4944 27.384C59.9504 27.136 60.4864 27.012 61.1024 27.012C61.4784 27.012 61.8504 27.072 62.2184 27.192C62.5864 27.312 62.8904 27.48 63.1304 27.696L62.6864 28.74C62.4784 28.556 62.2424 28.416 61.9784 28.32C61.7224 28.224 61.4744 28.176 61.2344 28.176C60.7144 28.176 60.3104 28.34 60.0224 28.668C59.7424 28.988 59.6024 29.448 59.6024 30.048C59.6024 30.64 59.7424 31.108 60.0224 31.452C60.3104 31.788 60.7144 31.956 61.2344 31.956C61.4664 31.956 61.7144 31.908 61.9784 31.812C62.2424 31.716 62.4784 31.572 62.6864 31.38L63.1304 32.436C62.8904 32.644 62.5824 32.812 62.2064 32.94C61.8384 33.06 61.4704 33.12 61.1024 33.12ZM66.7619 33.12C65.9779 33.12 65.3939 32.924 65.0099 32.532C64.6259 32.14 64.4339 31.568 64.4339 30.816V28.26H63.3059V27.132H64.4339V25.38H65.9339V27.132H67.7099V28.26H65.9339V30.732C65.9339 31.116 66.0179 31.404 66.1859 31.596C66.3539 31.788 66.6259 31.884 67.0019 31.884C67.1139 31.884 67.2299 31.872 67.3499 31.848C67.4699 31.816 67.5939 31.784 67.7219 31.752L67.9499 32.856C67.8059 32.936 67.6219 33 67.3979 33.048C67.1819 33.096 66.9699 33.12 66.7619 33.12ZM68.5834 25.872V24.408H70.2634V25.872H68.5834ZM68.6794 33V27.132H70.1794V33H68.6794ZM74.414 33.12C73.806 33.12 73.278 32.996 72.83 32.748C72.382 32.5 72.034 32.148 71.786 31.692C71.538 31.228 71.414 30.684 71.414 30.06C71.414 29.436 71.538 28.896 71.786 28.44C72.034 27.984 72.382 27.632 72.83 27.384C73.278 27.136 73.806 27.012 74.414 27.012C75.022 27.012 75.55 27.136 75.998 27.384C76.446 27.632 76.794 27.984 77.042 28.44C77.29 28.896 77.414 29.436 77.414 30.06C77.414 30.684 77.29 31.228 77.042 31.692C76.794 32.148 76.446 32.5 75.998 32.748C75.55 32.996 75.022 33.12 74.414 33.12ZM74.414 31.98C74.862 31.98 75.222 31.82 75.494 31.5C75.766 31.172 75.902 30.692 75.902 30.06C75.902 29.42 75.766 28.944 75.494 28.632C75.222 28.312 74.862 28.152 74.414 28.152C73.966 28.152 73.606 28.312 73.334 28.632C73.062 28.944 72.926 29.42 72.926 30.06C72.926 30.692 73.062 31.172 73.334 31.5C73.606 31.82 73.966 31.98 74.414 31.98ZM78.6521 33V27.132H80.1161V28.308H79.9841C80.1601 27.884 80.4321 27.564 80.8001 27.348C81.1761 27.124 81.6001 27.012 82.0721 27.012C82.5441 27.012 82.9321 27.1 83.2361 27.276C83.5401 27.452 83.7681 27.72 83.9201 28.08C84.0721 28.432 84.1481 28.88 84.1481 29.424V33H82.6481V29.496C82.6481 29.192 82.6081 28.944 82.5281 28.752C82.4561 28.56 82.3401 28.42 82.1801 28.332C82.0281 28.236 81.8321 28.188 81.5921 28.188C81.3041 28.188 81.0521 28.252 80.8361 28.38C80.6201 28.5 80.4521 28.676 80.3321 28.908C80.2121 29.132 80.1521 29.396 80.1521 29.7V33H78.6521ZM34.5812 46V37.54H38.2532C39.1812 37.54 39.8972 37.764 40.4012 38.212C40.9052 38.652 41.1572 39.272 41.1572 40.072C41.1572 40.592 41.0412 41.04 40.8092 41.416C40.5852 41.792 40.2572 42.08 39.8252 42.28C39.3932 42.48 38.8692 42.58 38.2532 42.58L38.3612 42.4H38.7572C39.0852 42.4 39.3692 42.48 39.6092 42.64C39.8572 42.8 40.0732 43.052 40.2572 43.396L41.6732 46H39.9812L38.5172 43.3C38.4212 43.124 38.3132 42.988 38.1932 42.892C38.0732 42.788 37.9372 42.716 37.7852 42.676C37.6332 42.636 37.4572 42.616 37.2572 42.616H36.1172V46H34.5812ZM36.1172 41.476H37.9892C38.5412 41.476 38.9572 41.364 39.2372 41.14C39.5252 40.908 39.6692 40.564 39.6692 40.108C39.6692 39.66 39.5252 39.324 39.2372 39.1C38.9572 38.868 38.5412 38.752 37.9892 38.752H36.1172V41.476ZM44.5372 46.12C44.1132 46.12 43.7332 46.04 43.3972 45.88C43.0692 45.712 42.8092 45.488 42.6172 45.208C42.4332 44.928 42.3412 44.612 42.3412 44.26C42.3412 43.828 42.4532 43.488 42.6772 43.24C42.9012 42.984 43.2652 42.8 43.7692 42.688C44.2732 42.576 44.9492 42.52 45.7972 42.52H46.3972V43.384H45.8092C45.4332 43.384 45.1172 43.4 44.8612 43.432C44.6052 43.456 44.3972 43.5 44.2372 43.564C44.0852 43.62 43.9732 43.7 43.9012 43.804C43.8372 43.908 43.8052 44.036 43.8052 44.188C43.8052 44.452 43.8972 44.668 44.0812 44.836C44.2652 45.004 44.5212 45.088 44.8492 45.088C45.1132 45.088 45.3452 45.028 45.5452 44.908C45.7532 44.78 45.9172 44.608 46.0372 44.392C46.1572 44.176 46.2172 43.928 46.2172 43.648V42.268C46.2172 41.868 46.1292 41.58 45.9532 41.404C45.7772 41.228 45.4812 41.14 45.0652 41.14C44.7372 41.14 44.4012 41.192 44.0572 41.296C43.7132 41.392 43.3652 41.544 43.0132 41.752L42.5812 40.732C42.7892 40.588 43.0332 40.464 43.3132 40.36C43.6012 40.248 43.9012 40.164 44.2132 40.108C44.5332 40.044 44.8332 40.012 45.1132 40.012C45.6892 40.012 46.1612 40.1 46.5292 40.276C46.9052 40.452 47.1852 40.72 47.3692 41.08C47.5532 41.432 47.6452 41.888 47.6452 42.448V46H46.2412V44.752H46.3372C46.2812 45.032 46.1692 45.276 46.0012 45.484C45.8412 45.684 45.6372 45.84 45.3892 45.952C45.1412 46.064 44.8572 46.12 44.5372 46.12ZM51.8557 46.12C51.0717 46.12 50.4877 45.924 50.1037 45.532C49.7197 45.14 49.5277 44.568 49.5277 43.816V41.26H48.3997V40.132H49.5277V38.38H51.0277V40.132H52.8037V41.26H51.0277V43.732C51.0277 44.116 51.1117 44.404 51.2797 44.596C51.4477 44.788 51.7197 44.884 52.0957 44.884C52.2077 44.884 52.3237 44.872 52.4437 44.848C52.5637 44.816 52.6877 44.784 52.8157 44.752L53.0437 45.856C52.8997 45.936 52.7157 46 52.4917 46.048C52.2757 46.096 52.0637 46.12 51.8557 46.12ZM53.6772 38.872V37.408H55.3572V38.872H53.6772ZM53.7732 46V40.132H55.2732V46H53.7732ZM56.8318 46V40.132H58.2958V41.308H58.1638C58.3398 40.884 58.6118 40.564 58.9798 40.348C59.3558 40.124 59.7798 40.012 60.2518 40.012C60.7238 40.012 61.1118 40.1 61.4158 40.276C61.7198 40.452 61.9478 40.72 62.0998 41.08C62.2518 41.432 62.3278 41.88 62.3278 42.424V46H60.8278V42.496C60.8278 42.192 60.7878 41.944 60.7078 41.752C60.6358 41.56 60.5198 41.42 60.3598 41.332C60.2078 41.236 60.0118 41.188 59.7718 41.188C59.4838 41.188 59.2318 41.252 59.0158 41.38C58.7998 41.5 58.6318 41.676 58.5118 41.908C58.3918 42.132 58.3318 42.396 58.3318 42.7V46H56.8318ZM66.5873 48.28C66.0433 48.28 65.5313 48.216 65.0513 48.088C64.5793 47.968 64.1633 47.78 63.8033 47.524L64.2353 46.48C64.4593 46.624 64.6953 46.744 64.9433 46.84C65.1913 46.944 65.4433 47.02 65.6993 47.068C65.9553 47.116 66.2113 47.14 66.4673 47.14C67.0033 47.14 67.4033 47.008 67.6673 46.744C67.9393 46.488 68.0753 46.104 68.0753 45.592V44.512H68.1833C68.0633 44.92 67.8113 45.248 67.4273 45.496C67.0513 45.736 66.6233 45.856 66.1433 45.856C65.6153 45.856 65.1553 45.736 64.7633 45.496C64.3713 45.248 64.0673 44.904 63.8513 44.464C63.6353 44.024 63.5273 43.512 63.5273 42.928C63.5273 42.344 63.6353 41.836 63.8513 41.404C64.0673 40.964 64.3713 40.624 64.7633 40.384C65.1553 40.136 65.6153 40.012 66.1433 40.012C66.6393 40.012 67.0713 40.136 67.4393 40.384C67.8153 40.624 68.0593 40.944 68.1713 41.344H68.0753V40.132H69.5393V45.412C69.5393 46.044 69.4273 46.572 69.2033 46.996C68.9793 47.428 68.6473 47.748 68.2073 47.956C67.7673 48.172 67.2273 48.28 66.5873 48.28ZM66.5513 44.716C67.0153 44.716 67.3833 44.556 67.6553 44.236C67.9273 43.916 68.0633 43.48 68.0633 42.928C68.0633 42.376 67.9273 41.944 67.6553 41.632C67.3833 41.312 67.0153 41.152 66.5513 41.152C66.0873 41.152 65.7193 41.312 65.4473 41.632C65.1753 41.944 65.0393 42.376 65.0393 42.928C65.0393 43.48 65.1753 43.916 65.4473 44.236C65.7193 44.556 66.0873 44.716 66.5513 44.716Z" fill="black"/></svg>